<?xml version="1.0" encoding="UTF-8"?>
<svg width="3126px" height="818px" viewBox="0 0 3126 818" version="1.1" xmlns="http://www.w3.org/2000/svg" xmlns:xlink="http://www.w3.org/1999/xlink">
    <!-- Generator: Sketch 53.2 (72643) - https://sketchapp.com -->
    <title>Group 5</title>
    <desc>Created with Sketch.</desc>
    <defs>
        <path d="M603,350.005666 C603,420.935199 588.571926,482.749028 559.715347,535.449008 C530.858767,588.148989 488.735425,629.082007 433.344059,658.249292 C377.952693,687.416576 311.782563,702 234.831683,702 L0,702 L0,0 L234.831683,0 C311.782563,0 377.952693,14.4177028 433.344059,43.2535411 C488.735425,72.0893793 530.858767,112.690956 559.715347,165.05949 C588.571926,217.428024 603,279.076133 603,350.005666 Z M226.398936,600 C310.615669,600 375.269278,578.131693 420.361702,534.394422 C465.454126,490.657152 488,429.359624 488,350.5 C488,271.640376 465.454126,210.342848 420.361702,166.605578 C375.269278,122.868307 310.615669,101 226.398936,101 L114,101 L114,600 L226.398936,600 Z" id="path-1"></path>
    </defs>
    <g id="Page-1" stroke="none" stroke-width="1" fill="none" fill-rule="evenodd">
        <g id="Group-5" transform="translate(-0.500000, -0.500000)">
            <rect id="Combined-Shape-Copy-2" fill="#8A7FFF" x="80.5" y="0.5" width="115" height="274"></rect>
            <rect id="Combined-Shape-Copy-3" fill="#8A7FFF" transform="translate(137.500000, 137.000000) rotate(-270.000000) translate(-137.500000, -137.000000) " x="80" y="0" width="115" height="274"></rect>
            <g id="Path-3" transform="translate(80.500000, 79.500000)">
                <mask id="mask-2" fill="white">
                    <use xlink:href="#path-1"></use>
                </mask>
                <g id="Mask" fill-rule="nonzero"></g>
                <polygon stroke="#979797" fill="#8A7FFF" mask="url(#mask-2)" points="0 251 253 251 248 -19 732 -19 732 721 0 721"></polygon>
            </g>
            <path d="M1151.18,431.374 C1151.18,475.529554 1142.20459,514.010336 1124.2535,546.8175 C1106.30241,579.624664 1080.09834,605.106576 1045.6405,623.264 C1011.18266,641.421424 970.019573,650.5 922.15,650.5 L776.066,650.5 L776.066,213.486 L922.15,213.486 C970.019573,213.486 1011.18266,222.46141 1045.6405,240.4125 C1080.09834,258.36359 1106.30241,283.63917 1124.2535,316.24 C1142.20459,348.84083 1151.18,387.218446 1151.18,431.374 Z M916.579,586.743 C968.987929,586.743 1009.22253,573.125136 1037.284,545.889 C1065.34547,518.652864 1079.376,480.481579 1079.376,431.374 C1079.376,382.266421 1065.34547,344.095136 1037.284,316.859 C1009.22253,289.622864 968.987929,276.005 916.579,276.005 L846.632,276.005 L846.632,586.743 L916.579,586.743 Z" id="Combined-Shape" fill="#303030" fill-rule="nonzero"></path>
            <path d="M1212.461,210.391 C1212.461,198.423607 1216.58763,188.519706 1224.841,180.679 C1233.09437,172.838294 1244.02993,168.918 1257.648,168.918 C1271.26607,168.918 1282.30479,172.838294 1290.7645,180.679 C1299.22421,188.519706 1303.454,198.423607 1303.454,210.391 C1303.454,222.358393 1299.22421,232.055963 1290.7645,239.484 C1282.30479,246.912037 1271.26607,250.626 1257.648,250.626 C1244.02993,250.626 1233.09437,246.912037 1224.841,239.484 C1216.58763,232.055963 1212.461,222.358393 1212.461,210.391 Z" id="Path" fill="#8A7FFF" fill-rule="nonzero"></path>
            <polygon id="Path" fill="#303030" fill-rule="nonzero" points="1292.931 309.431 1292.931 650.5 1222.365 650.5 1222.365 309.431"></polygon>
            <path d="M1515.152,305.098 C1546.10215,305.098 1572.51256,312.732257 1594.384,328.001 C1616.25544,343.269743 1631.73029,363.490207 1640.809,388.663 L1640.809,309.431 L1711.375,309.431 L1711.375,654.214 C1711.375,685.989492 1704.87556,714.153711 1691.8765,738.7075 C1678.87744,763.261289 1660.20446,782.553263 1635.857,796.584 C1611.50954,810.614737 1582.62317,817.63 1549.197,817.63 C1501.32743,817.63 1462.64031,806.28178 1433.1345,783.585 C1403.62869,760.88822 1385.16204,730.144861 1377.734,691.354 L1447.681,691.354 C1453.45836,711.574768 1464.60025,727.35911 1481.107,738.7075 C1497.61375,750.05589 1518.65954,755.73 1544.245,755.73 C1572.30647,755.73 1595.41558,747.064087 1613.573,729.732 C1631.73042,712.399913 1640.809,687.227498 1640.809,654.214 L1640.809,571.268 C1631.73029,596.440793 1616.25544,616.661257 1594.384,631.93 C1572.51256,647.198743 1546.10215,654.833 1515.152,654.833 C1485.43985,654.833 1458.92628,647.817737 1435.6105,633.787 C1412.29472,619.756263 1394.0344,599.535799 1380.829,573.125 C1367.6236,546.714201 1361.021,515.55818 1361.021,479.656 C1361.021,444.166489 1367.6236,413.216799 1380.829,386.806 C1394.0344,360.395201 1412.29472,340.174737 1435.6105,326.144 C1458.92628,312.113263 1485.43985,305.098 1515.152,305.098 Z M1536.817,366.998 C1505.45418,366.998 1480.38493,377.005067 1461.6085,397.0195 C1442.83207,417.033933 1433.444,444.579158 1433.444,479.656 C1433.444,514.732842 1442.83207,542.278067 1461.6085,562.2925 C1480.38493,582.306933 1505.45418,592.314 1536.817,592.314 C1556.6251,592.314 1574.36959,587.671546 1590.051,578.3865 C1605.73241,569.101454 1618.11229,555.999418 1627.191,539.08 C1636.26971,522.160582 1640.809,502.35278 1640.809,479.656 C1640.809,457.371889 1636.26971,437.667252 1627.191,420.5415 C1618.11229,403.415748 1605.73241,390.210546 1590.051,380.9255 C1574.36959,371.640454 1556.6251,366.998 1536.817,366.998 Z" id="Combined-Shape" fill="#303030" fill-rule="nonzero"></path>
            <path d="M1786.274,210.391 C1786.274,198.423607 1790.40063,188.519706 1798.654,180.679 C1806.90737,172.838294 1817.84293,168.918 1831.461,168.918 C1845.07907,168.918 1856.11779,172.838294 1864.5775,180.679 C1873.03721,188.519706 1877.267,198.423607 1877.267,210.391 C1877.267,222.358393 1873.03721,232.055963 1864.5775,239.484 C1856.11779,246.912037 1845.07907,250.626 1831.461,250.626 C1817.84293,250.626 1806.90737,246.912037 1798.654,239.484 C1790.40063,232.055963 1786.274,222.358393 1786.274,210.391 Z" id="Path" fill="#8A7FFF" fill-rule="nonzero"></path>
            <polygon id="Path" fill="#303030" fill-rule="nonzero" points="1866.744 309.431 1866.744 650.5 1796.178 650.5 1796.178 309.431"></polygon>
            <path d="M2022.732,480.894 L2022.732,650.5 L1952.166,650.5 L1952.166,213.486 L2100.726,213.486 C2151.07159,213.486 2188.93337,225.453214 2214.3125,249.388 C2239.69163,273.322786 2252.381,306.129458 2252.381,347.809 C2252.381,389.075873 2239.38213,421.573048 2213.384,445.3015 C2187.38587,469.029952 2149.83358,480.894 2100.726,480.894 L2022.732,480.894 Z M2093.298,423.327 C2151.48429,423.327 2180.577,398.154585 2180.577,347.809 C2180.577,323.048876 2173.6649,304.169565 2159.8405,291.1705 C2146.0161,278.171435 2123.83549,271.672 2093.298,271.672 L2022.732,271.672 L2022.732,423.327 L2093.298,423.327 Z" id="Combined-Shape" fill="#303030" fill-rule="nonzero"></path>
            <polygon id="Path" fill="#303030" fill-rule="nonzero" points="2384.847 192.44 2384.847 650.5 2314.281 650.5 2314.281 192.44"></polygon>
            <path d="M2784.721,309.431 L2784.721,650.5 L2713.536,650.5 L2713.536,576.22 C2704.86996,601.392793 2689.80777,620.891098 2668.349,634.7155 C2646.89023,648.539902 2621.92414,655.452 2593.45,655.452 C2553.8338,655.452 2522.05879,642.659461 2498.124,617.074 C2474.18921,591.488539 2462.222,554.967904 2462.222,507.511 L2462.222,309.431 L2532.788,309.431 L2532.788,500.083 C2532.788,531.033155 2540.62859,554.864416 2556.31,571.5775 C2571.99141,588.290584 2593.44986,596.647 2620.686,596.647 C2648.74747,596.647 2671.23758,587.568424 2688.157,569.411 C2705.07642,551.253576 2713.536,524.843173 2713.536,490.179 L2713.536,309.431 L2784.721,309.431 Z" id="Path" fill="#303030" fill-rule="nonzero"></path>
            <path d="M2981.563,305.098 C3021.59187,305.098 3053.67638,315.311398 3077.8175,335.7385 C3101.95862,356.165602 3116.71131,383.504495 3122.076,417.756 L3055.224,417.756 C3052.33532,399.185907 3044.39156,384.22689 3031.3925,372.8785 C3018.39344,361.53011 3001.16477,355.856 2979.706,355.856 C2961.96124,355.856 2948.24022,360.085791 2938.5425,368.5455 C2928.84478,377.005209 2923.996,388.456594 2923.996,402.9 C2923.996,413.629387 2927.50363,422.2953 2934.519,428.898 C2941.53437,435.5007 2950.30345,440.658981 2960.8265,444.373 C2971.34955,448.087019 2986.30857,452.213644 3005.704,456.753 C3031.28946,462.530362 3052.02575,468.513969 3067.9135,474.704 C3083.80125,480.894031 3097.41911,490.694766 3108.7675,504.1065 C3120.11589,517.518234 3125.79,535.778551 3125.79,558.888 C3125.79,587.362142 3114.95761,610.471245 3093.2925,628.216 C3071.62739,645.960755 3042.43152,654.833 3005.704,654.833 C2963.19912,654.833 2928.84496,644.929099 2902.6405,625.121 C2876.43604,605.312901 2860.65169,577.664511 2855.287,542.175 L2923.996,542.175 C2926.05934,560.745093 2934.31259,575.807276 2948.756,587.362 C2963.19941,598.916724 2982.18188,604.694 3005.704,604.694 C3022.62342,604.694 3035.93178,600.257878 3045.6295,591.3855 C3055.32722,582.513122 3060.176,571.268068 3060.176,557.65 C3060.176,545.682607 3056.46204,536.191368 3049.034,529.176 C3041.60596,522.160632 3032.32106,516.692853 3021.179,512.7725 C3010.03694,508.852147 2994.76843,504.828687 2975.373,500.702 C2950.61288,494.924638 2930.49558,489.147362 2915.0205,483.37 C2899.54542,477.592638 2886.34022,468.204565 2875.4045,455.2055 C2864.46878,442.206435 2859.001,424.565111 2859.001,402.281 C2859.001,373.394189 2869.83339,349.97559 2891.4985,332.0245 C2913.16361,314.07341 2943.18481,305.098 2981.563,305.098 Z" id="Path" fill="#303030" fill-rule="nonzero"></path>
        </g>
    </g>
</svg>