<?xml version="1.0" encoding="UTF-8"?>
<svg width="195px" height="39px" viewBox="0 0 195 39" version="1.1" xmlns="http://www.w3.org/2000/svg" xmlns:xlink="http://www.w3.org/1999/xlink">
    <!-- Generator: Sketch 53.2 (72643) - https://sketchapp.com -->
    <title>Group</title>
    <desc>Created with Sketch.</desc>
    <g id="Page-1" stroke="none" stroke-width="1" fill="none" fill-rule="evenodd">
        <g id="Desktop-HD-Copy-5" transform="translate(-242.000000, -36.000000)">
            <g id="Group" transform="translate(236.000000, 31.000000)">
                <text id="Publicera" font-family="HelveticaNeue-Bold, Helvetica Neue" font-size="36" font-weight="bold" letter-spacing="-1.39999998" fill="#FFFFFF">
                    <tspan x="51.1359999" y="39">Publicer</tspan>
                    <tspan x="181.2" y="39">a</tspan>
                </text>
                <g id="el-bullhorn" transform="translate(25.500000, 25.500000) rotate(-30.000000) translate(-25.500000, -25.500000) translate(7.000000, 7.000000)" fill-rule="nonzero">
                    <g id="Icon" transform="translate(0.000000, 2.000000)" fill="#FFFFFF">
                        <path d="M31.758765,0.988058333 C26.97411,5.726155 19.9419517,8.6263075 13.1671283,9.03420167 L3.1064275,9.03420167 C1.52187167,9.05597 0.089355,10.4030783 0,12.1799108 L0,16.71645 C0.0216141667,18.3003275 1.32793,19.7726808 3.10488583,19.8620975 L7.13853333,19.8620975 C6.06053833,23.5179133 7.21848417,27.2188075 8.46899167,30.85156 C10.32411,32.6032017 14.5673625,32.3852717 15.95033,30.1055475 C13.0050375,27.7902417 11.570455,21.5602433 15.1212525,20.023695 C21.1733733,20.7103842 27.1693467,23.78567 31.7587342,27.9082717 C33.336445,27.8866575 34.771305,26.5903008 34.86362,24.8230267 L34.86362,17.3823883 C38.0224642,16.2605792 37.383875,12.3177358 34.86362,11.5154217 L34.86362,4.09448583 C34.8425608,2.51073167 33.5355358,1.07901667 31.7587342,0.989569167 L31.7587342,0.988058333 L31.758765,0.988058333 Z M31.8387775,5.00055417 L31.8387775,23.915355 C27.4039883,20.45974 21.92472,18.1408267 16.2720142,17.1000167 L16.2720142,11.817465 C21.8187458,10.982745 27.2435933,8.42342417 31.8387775,5.00055417 Z" id="Icon-Shape"></path>
                    </g>
                    <rect id="ViewBox" x="0" y="0" width="37" height="37"></rect>
                </g>
            </g>
        </g>
    </g>
</svg>